#!OML:ASF X:\für Bonn\!DataBase\2005_08_12_Daniel\c3d\Daniel.ASF
:FULLY-SPECIFIED
:DEGREES
212
root 13.3699 1.74872 1.04624 -657.697 -82.0586 -148.138
lowerback 69.1286 -6.87553 12.152
upperback 13.4669 -4.47845 -1.46013
thorax -5.9349 -3.8668 -4.38633
lowerneck -9.59914 2.12714 -5.86477
upperneck 5.61829 3.75617 -2.84108
head 3.47419 1.56165 0.315257
rclavicle -2.90723e-015 -1.95803e-014
rhumerus -59.7512 -3.06031 -83.8626
rradius 14.7146
rwrist 44.4777
rhand -66.9036 -279.645
rfingers 7.12502
rthumb -38.6959 -305.251
lclavicle -2.90723e-015 -1.95803e-014
lhumerus -408.703 14.6865 -274.792
lradius 29.0693
lwrist 3.59871
lhand -70.5122 335.091
lfingers 7.12502
lthumb -42.089 359.651
rfemur 122.069 -159.634 192.538
rtibia 109.976
rfoot 38.7661 15.051
rtoes 8.36012
lfemur -62.3155 28.8404 -18.264
ltibia 115.32
lfoot 22.0298 6.46041
ltoes 13.7249
213
root 13.3995 1.75199 1.0196 -657.609 -82.0073 -148.077
lowerback 68.9467 -6.85341 12.1253
upperback 13.4929 -4.49222 -1.49658
thorax -5.9244 -3.86409 -4.4183
lowerneck -9.73691 2.15861 -5.61044
upperneck 5.6414 3.78395 -2.90605
head 3.5145 1.57679 0.253769
rclavicle 1.14301e-014 4.59193e-014
rhumerus -59.607 -3.35117 -83.8793
rradius 14.8327
rwrist 44.713
rhand -66.8395 -280.114
rfingers 7.12502
rthumb -38.6355 -305.737
lclavicle 1.14301e-014 4.59193e-014
lhumerus -408.552 14.7865 -275.094
lradius 28.8549
lwrist 3.39185
lhand -70.4905 335.667
lfingers 7.12502
lthumb -42.0686 360.234
rfemur 122.613 -160.064 193.286
rtibia 108.546
rfoot 38.5885 14.3032
rtoes 8.33353
lfemur -62.3992 28.5013 -18.2645
ltibia 115.059
lfoot 22.3299 6.56644
ltoes 14.0623
214
root 13.4303 1.755 0.991578 -657.36 -81.9683 -148.199
lowerback 68.8092 -6.77474 12.0447
upperback 13.5074 -4.46965 -1.47722
thorax -5.91891 -3.85474 -4.37954
lowerneck -9.88342 2.16765 -5.49283
upperneck 5.65964 3.79754 -2.96915
head 3.55287 1.58107 0.215886
rclavicle 5.63058e-014 8.55768e-014
rhumerus -59.4825 -3.46765 -83.989
rradius 15.0121
rwrist 44.826
rhand -66.8331 -280.687
rfingers 7.12502
rthumb -38.6294 -306.312
lclavicle 5.63058e-014 8.55768e-014
lhumerus -408.515 14.725 -275.187
lradius 28.9209
lwrist 3.44332
lhand -70.424 336.161
lfingers 7.12502
lthumb -42.0063 360.749
rfemur 123.208 -160.523 194.027
rtibia 107.064
rfoot 38.3838 13.5124
rtoes 8.25906
lfemur -62.4384 28.234 -18.2405
ltibia 114.783
lfoot 22.7188 6.53495
ltoes 14.1814
215
root 13.4641 1.75646 0.963518 -657.136 -81.9654 -148.281
lowerback 68.6662 -6.66213 11.9222
upperback 13.5161 -4.4326 -1.43796
thorax -5.91993 -3.84123 -4.30781
lowerneck -9.95123 2.17018 -5.48299
upperneck 5.62607 3.80382 -2.98427
head 3.55473 1.58389 0.210401
rclavicle 3.32219e-014 7.51406e-014
rhumerus -59.4077 -3.45086 -84.2215
rradius 15.2624
rwrist 44.6993
rhand -66.8206 -281.231
rfingers 7.12502
rthumb -38.6177 -306.86
lclavicle 3.32219e-014 7.51406e-014
lhumerus -408.602 14.5272 -275.165
lradius 29.2595
lwrist 3.62069
lhand -70.3549 337.112
lfingers 7.12502
lthumb -41.9416 361.722
rfemur 123.807 -160.982 194.71
rtibia 105.531
rfoot 38.1418 12.4726
rtoes 8.21068
lfemur -62.4752 27.9752 -18.2633
ltibia 114.474
lfoot 23.1069 6.51871
ltoes 14.035
216
root 13.4968 1.75692 0.933978 -656.797 -81.9725 -148.457
lowerback 68.5086 -6.52909 11.7881
upperback 13.5341 -4.38309 -1.40251
thorax -5.91117 -3.82127 -4.24243
lowerneck -9.98928 2.16083 -5.54233
upperneck 5.54726 3.79495 -2.94771
head 3.53268 1.58193 0.232274
rclavicle 2.78299e-014 1.77912e-014
rhumerus -59.3333 -3.34375 -84.5731
rradius 15.5519
rwrist 44.4152
rhand -66.7291 -281.896
rfingers 7.12502
rthumb -38.5313 -307.548
lclavicle 2.78299e-014 1.77912e-014
lhumerus -408.718 14.2446 -275.101
lradius 29.714
lwrist 3.92286
lhand -70.2031 337.711
lfingers 7.12502
lthumb -41.7992 362.368
rfemur 124.378 -161.41 195.379
rtibia 103.987
rfoot 37.9003 11.115
rtoes 8.42632
lfemur -62.5728 27.7364 -18.2901
ltibia 114.176
lfoot 23.5264 6.47983
ltoes 13.7465
217
root 13.531 1.75637 0.905803 -656.46 -82.0155 -148.649
lowerback 68.3904 -6.39085 11.6223
upperback 13.5381 -4.3444 -1.36776
thorax -5.91906 -3.80859 -4.15835
lowerneck -9.93026 2.16173 -5.7031
upperneck 5.40217 3.79812 -2.85677
head 3.4652 1.58938 0.288159
rclavicle -7.15625e-015 2.60408e-014
rhumerus -59.354 -2.92602 -85.263
rradius 16.0029
rwrist 43.654
rhand -66.6448 -282.643
rfingers 7.12502
rthumb -38.4518 -308.318
lclavicle -7.15625e-015 2.60408e-014
lhumerus -408.834 13.9329 -274.997
lradius 30.1749
lwrist 4.21217
lhand -70.1073 338.712
lfingers 7.12502
lthumb -41.7094 363.399
rfemur 124.979 -161.809 195.975
rtibia 102.408
rfoot 37.6071 9.80937
rtoes 8.44432
lfemur -62.6163 27.4922 -18.3492
ltibia 113.844
lfoot 23.9657 6.40403
ltoes 13.4279
218
root 13.5645 1.75602 0.879156 -656.208 -82.0893 -148.747
lowerback 68.2392 -6.25338 11.4674
upperback 13.5676 -4.3046 -1.34029
thorax -5.89907 -3.79269 -4.08996
lowerneck -9.74471 2.16213 -5.88879
upperneck 5.15118 3.78763 -2.74985
head 3.33576 1.59535 0.349365
rclavicle -9.29318e-015 2.28602e-015
rhumerus -59.3975 -2.43239 -86.064
rradius 16.5401
rwrist 42.7411
rhand -66.5038 -283.426
rfingers 7.12502
rthumb -38.3187 -309.138
lclavicle -9.29318e-015 2.28602e-015
lhumerus -408.935 13.5772 -274.868
lradius 30.6966
lwrist 4.60169
lhand -69.9572 338.881
lfingers 7.12502
lthumb -41.5686 363.614
rfemur 125.587 -162.15 196.495
rtibia 100.814
rfoot 37.3313 8.6673
rtoes 8.26685
lfemur -62.672 27.2194 -18.4658
ltibia 113.507
lfoot 24.4055 6.35174
ltoes 13.0809
